# xmcd
#
# Track frame offsets: 
#        150
#        13210
#        25132
#        37545
#        49582
#        60247
#        69590
#        81452
#        90785
#        100965
#        113552
#        125890
#        136610
#        150845
#        161515
#        174610
#        189397
#        203670
#        216280
#        228815
#        236385
#        250840
#        265237
#        274925
#        284672
#
# Disc length: 3949 seconds
#
# Revision: 1
# Processed by: cddbd v1.5.2PL0 Copyright (c) Steve Scherf et al.
# Submitted via: ExactAudioCopyFreeDBPlugin 1.0
#
DISCID=460f6b19
DTITLE=Various Artist - Chicago Blues, The Vee Jay Years - CD1
DYEAR=1998
DGENRE=Blues
TTITLE0=Big Joe Williams - Goin' Back (Going Back Home)
TTITLE1=Big Joe Williams - Baby Left Town
TTITLE2=Billy Emerson - Every Woman I Know
TTITLE3=Billy Emerson - Don't Be Careless
TTITLE4=Memphis Slim - The Comeback
TTITLE5=Memphis Slim - Steppin' Out
TTITLE6=Snooky Pryor - Someone To Love Me (alt)
TTITLE7=Snooky Pryor - You Tried To Ruin Me Baby
TTITLE8=J.B. Lenoir - Oh Baby
TTITLE9=L.C. McKinley - Blue Evening
TTITLE10=L.C. McKinley - I'm So Satisfied
TTITLE11=Memphis Slim - Gotta Find My Baby
TTITLE12=Memphis Slim - Messin' Around
TTITLE13=Billy Boy Arnold - Kissing at Midnight
TTITLE14=Billy Boy Arnold - Don't Stay Out All Night
TTITLE15=Floyd Jones - Schooldays (Oh My Mind)
TTITLE16=Floyd Jones - Ain't Times Hard
TTITLE17=Billy Emerson - Tomorrow Never Comes
TTITLE18=Billy Emerson - Don't Start Me Lyin'
TTITLE19=Billy Emerson - If You Won't Stay Home
TTITLE20=Memphis Slim - Blue And Lonesome
TTITLE21=Memphis Slim - Slim's Blues
TTITLE22=Jimmy Reed - Goin' By The River (pt_1)
TTITLE23=Jimmy Reed - Goin' By The River (pt_2)
TTITLE24=Eddie Taylor - You'll Always Have A Home
EXTD=
EXTT0=
EXTT1=
EXTT2=
EXTT3=
EXTT4=
EXTT5=
EXTT6=
EXTT7=
EXTT8=
EXTT9=
EXTT10=
EXTT11=
EXTT12=
EXTT13=
EXTT14=
EXTT15=
EXTT16=
EXTT17=
EXTT18=
EXTT19=
EXTT20=
EXTT21=
EXTT22=
EXTT23=
EXTT24=
PLAYORDER=
